HIERARCHY
ROOT SimulationBone
{
	OFFSET 0.000000 0.000000 0.000000
	CHANNELS 6 Xposition Yposition Zposition Zrotation Yrotation Xrotation 
	JOINT Hips
	{
		OFFSET 0.000000 0.000000 0.000000
		CHANNELS 6 Xposition Yposition Zposition Zrotation Yrotation Xrotation 
		JOINT RightUpLeg
		{
			OFFSET 0.103458 1.857820 10.548502
			CHANNELS 3 Zrotation Yrotation Xrotation
			JOINT RightLeg
			{
				OFFSET 43.500000 -0.000023 -0.000011
				CHANNELS 3 Zrotation Yrotation Xrotation
				JOINT RightFoot
				{
					OFFSET 42.372192 0.000038 0.000002
					CHANNELS 3 Zrotation Yrotation Xrotation
					JOINT RightToe
					{
						OFFSET 17.299992 -0.000004 0.000006
						CHANNELS 3 Zrotation Yrotation Xrotation
						End Site
						{
							OFFSET 0.000000 0.000000 0.000000
						}
					}
				}
			}
		}
		JOINT LeftUpLeg
		{
			OFFSET 0.103461 1.857814 -10.548508
			CHANNELS 3 Zrotation Yrotation Xrotation
			JOINT LeftLeg
			{
				OFFSET 43.500042 -0.000015 0.000008
				CHANNELS 3 Zrotation Yrotation Xrotation
				JOINT LeftFoot
				{
					OFFSET 42.372253 0.000008 0.000006
					CHANNELS 3 Zrotation Yrotation Xrotation
					JOINT LeftToe
					{
						OFFSET 17.299973 -0.000014 0.000011
						CHANNELS 3 Zrotation Yrotation Xrotation
						End Site
						{
							OFFSET 0.000000 0.000000 0.000000
						}
					}
				}
			}
		}
		JOINT Spine
		{
			OFFSET 6.901966 -2.603737 -0.000007
			CHANNELS 3 Zrotation Yrotation Xrotation
			JOINT Spine1
			{
				OFFSET 12.588102 0.000017 0.000001
				CHANNELS 3 Zrotation Yrotation Xrotation
				JOINT Spine2
				{
					OFFSET 12.343197 -0.000013 0.000000
					CHANNELS 3 Zrotation Yrotation Xrotation
					JOINT Neck
					{
						OFFSET 25.832905 -0.000008 0.000000
						CHANNELS 3 Zrotation Yrotation Xrotation
						JOINT Head
						{
							OFFSET 11.766610 0.000009 -0.000002
							CHANNELS 3 Zrotation Yrotation Xrotation
							End Site
							{
								OFFSET 0.000000 0.000000 0.000000
							}
						}
					}
					JOINT RightShoulder
					{
						OFFSET 19.745903 -1.480377 6.000115
						CHANNELS 3 Zrotation Yrotation Xrotation
						JOINT RightArm
						{
							OFFSET 11.284125 -0.000014 -0.000024
							CHANNELS 3 Zrotation Yrotation Xrotation
							JOINT RightForeArm
							{
								OFFSET 33.000046 -0.000012 0.000029
								CHANNELS 3 Zrotation Yrotation Xrotation
								JOINT RightHand
								{
									OFFSET 25.199989 0.000034 0.000012
									CHANNELS 3 Zrotation Yrotation Xrotation
									End Site
									{
										OFFSET 0.000000 0.000000 0.000000
									}
								}
							}
						}
					}
					JOINT LeftShoulder
					{
						OFFSET 19.746098 -1.480362 -6.000071
						CHANNELS 3 Zrotation Yrotation Xrotation
						JOINT LeftArm
						{
							OFFSET 11.284137 -0.000006 -0.000008
							CHANNELS 3 Zrotation Yrotation Xrotation
							JOINT LeftForeArm
							{
								OFFSET 33.000095 0.000017 0.000000
								CHANNELS 3 Zrotation Yrotation Xrotation
								JOINT LeftHand
								{
									OFFSET 25.199778 0.000144 0.000423
									CHANNELS 3 Zrotation Yrotation Xrotation
									End Site
									{
										OFFSET 0.000000 0.000000 0.000000
									}
								}
							}
						}
					}
				}
			}
		}
	}
}
MOTION
Frames: 9
Frame Time: 0.016667
80.683207 0.000000 -174.414939 180.000000 -38.213454 180.000000 -17.510796 85.249550 -2.974361 66.409755 -8.386707 178.877629 119.673847 6.904694 -174.704505 -52.481253 -4.937487 -10.001408 86.520553 5.659358 -7.754993 21.454560 0.003110 0.000017 177.370614 -0.300800 170.221811 -53.754906 3.344764 8.598703 67.013362 -3.569450 7.511851 21.454555 -0.003092 0.000002 11.924751 -2.426398 0.840423 13.819495 -4.935646 1.385584 13.500207 -4.927333 1.415421 -30.524599 4.127704 -3.685045 -18.558594 -5.516315 0.394563 -175.015073 -73.943795 -6.526983 18.021471 41.893125 41.536401 -74.282889 -13.401179 2.595681 -11.155409 -17.814563 25.304602 179.096685 82.726204 0.694898 -22.819606 -47.733005 -1.928136 -96.239113 2.359323 -2.747434 -6.932889 4.615648 -33.211213 
78.300041 0.000000 -172.750212 180.000000 -38.543718 180.000000 -16.064344 84.290303 -2.755634 68.407529 -8.502467 179.169093 123.521109 7.754723 -173.311226 -50.171395 -5.107349 -8.838664 84.333544 4.662637 -8.192765 21.454554 0.003115 0.000018 175.970083 -1.053068 170.108857 -64.551533 4.481069 6.537678 66.698666 -1.884270 7.698398 21.454553 -0.003093 0.000001 11.984727 -2.457522 0.569736 13.951451 -4.965634 0.839046 13.632094 -4.960605 0.869076 -29.470793 5.138427 -3.731271 -19.211950 -6.038289 0.990609 -174.845283 -73.897868 -6.700569 15.508819 43.493926 36.294871 -78.155580 -11.481647 2.646819 -12.004869 -16.639879 26.533160 -179.008576 81.040660 2.584690 -20.066852 -52.709310 -4.581831 -91.610731 3.757092 -2.606354 -6.281201 3.725342 -34.539127 
75.704209 0.000000 -170.999793 180.000000 -38.773269 180.000000 -14.748338 83.352737 -2.546708 70.689048 -8.679094 179.295395 127.706928 8.327197 -173.002545 -50.780137 -5.199494 -8.159054 86.300641 4.446381 -7.368826 21.454555 0.003111 0.000018 174.496812 -1.550296 172.384003 -75.064816 3.249661 5.333005 66.377669 -1.182152 7.429265 21.454553 -0.003092 0.000002 12.039274 -2.488932 0.267401 14.074027 -4.991696 0.229580 13.754625 -4.990346 0.259782 -27.488334 5.698443 -3.342250 -20.096942 -5.918088 1.508850 -175.113592 -73.693735 -6.423590 12.349004 44.913482 31.466073 -81.527145 -9.873250 2.662211 -12.945283 -15.478940 27.161399 -177.025403 79.486976 4.575973 -16.298022 -57.411959 -7.877751 -87.456576 5.684323 -2.590162 -6.030532 3.145016 -35.960296 
72.907787 0.000000 -169.169944 180.000000 -38.907620 180.000000 -13.608651 82.453195 -2.383598 72.986049 -8.863273 179.360082 131.999145 8.796032 -173.273918 -53.046133 -5.153939 -7.786658 90.598241 4.577526 -6.085643 21.454557 0.003104 0.000017 172.604538 -1.616559 175.983716 -85.048831 0.866670 5.171932 66.333612 -1.171147 7.076650 21.454553 -0.003091 0.000003 12.061765 -2.510442 -0.074001 14.134061 -4.992794 -0.455232 13.814666 -4.995587 -0.425009 -24.988794 5.892252 -2.658252 -21.172829 -5.427853 1.981373 -175.562513 -73.326837 -5.959524 8.271195 46.038354 26.623852 -84.506965 -8.307076 2.674197 -13.703406 -14.567626 26.990413 -175.169648 77.938691 6.447231 -11.200647 -61.376826 -12.045904 -83.814950 7.643658 -2.581639 -5.883423 3.331246 -35.859894 
69.922852 0.000000 -167.266927 180.000000 -38.951896 180.000000 -12.691467 81.608017 -2.300638 75.028015 -9.009757 179.472563 136.177756 9.264208 -173.608095 -55.708453 -4.955696 -7.558444 95.400844 4.695276 -5.128103 21.454560 0.003101 0.000017 169.997097 -1.082302 179.829783 -94.321640 -1.523690 5.819410 66.856302 -1.554441 7.005587 21.454553 -0.003091 0.000003 12.025448 -2.512224 -0.461873 14.077832 -4.949310 -1.227794 13.758525 -4.956775 -1.197825 -22.390748 5.813945 -1.828381 -22.405010 -4.839375 2.446742 -175.941220 -72.793536 -5.565191 3.019854 46.685466 21.363741 -87.196427 -6.513667 2.677441 -14.007134 -14.141512 25.833962 -173.623476 76.274924 8.010622 -4.749677 -64.120653 -17.022632 -80.733962 9.121788 -2.536225 -5.488341 4.733598 -32.625562 
66.761482 0.000000 -165.297005 180.000000 -38.910881 180.000000 -12.022425 80.846905 -2.304051 76.602489 -9.059260 179.714587 140.134043 9.673495 -173.608780 -57.680076 -4.625763 -7.316361 99.286393 4.652396 -5.051396 21.454559 0.003106 0.000018 166.462703 0.051173 -176.994977 -102.656093 -3.119816 6.771387 68.090517 -2.103460 7.356078 21.454551 -0.003092 0.000001 11.913422 -2.482133 -0.897176 13.870653 -4.838508 -2.087929 13.551551 -4.851168 -2.058630 -20.142643 5.604206 -0.965466 -23.645029 -4.355110 2.961081 -176.058002 -72.141299 -5.438019 -3.439222 46.678870 15.524529 -89.776694 -4.396046 2.654457 -13.786593 -14.177425 23.915872 -172.368567 74.525717 9.283483 2.446599 -65.378544 -22.233813 -78.239533 9.766028 -2.464381 -4.434564 7.427012 -25.592152 
63.435751 0.000000 -163.266441 180.000000 -38.789062 180.000000 -11.542663 80.252998 -2.294163 77.734032 -8.872232 -179.956877 144.168381 9.593507 -173.411673 -58.565832 -4.304367 -6.914378 102.490191 4.465936 -5.340167 21.454558 0.003112 0.000018 162.036348 1.182688 -174.647705 -109.738702 -4.006631 7.686228 69.633231 -2.824508 7.404173 21.454551 -0.003093 -0.000001 11.748608 -2.397038 -1.355053 13.555777 -4.618472 -2.984567 13.237021 -4.636545 -2.956606 -18.813358 5.525405 -0.047769 -24.270756 -3.908212 3.617121 -175.871402 -71.615425 -5.624088 -10.565196 46.221074 9.577466 -92.764862 -2.537478 2.647885 -13.880326 -13.714530 23.122859 -170.741573 73.300411 10.947027 9.571116 -65.680974 -27.422175 -76.227977 9.890619 -2.396655 -3.126712 10.242523 -18.254509 
59.957737 0.000000 -161.181496 180.000000 -38.590670 180.000000 -11.179802 79.910562 -2.177461 78.507456 -8.321920 -179.624400 148.589708 8.643120 -173.274678 -58.174735 -4.156332 -6.258203 105.450279 4.123738 -5.372436 21.454556 0.003110 0.000018 156.816730 1.707125 -173.013800 -115.227279 -4.472594 8.378952 71.000155 -3.675211 6.530976 21.454552 -0.003092 0.000001 11.555794 -2.235369 -1.804832 13.179613 -4.250239 -3.855625 12.861338 -4.273574 -3.829902 -18.786104 5.829597 0.953011 -23.733747 -3.457259 4.502716 -175.530843 -71.510952 -5.973306 -17.771831 45.729064 3.896126 -96.573547 -1.431237 2.726456 -14.899265 -12.054348 24.709652 -168.202316 73.108113 13.553710 16.380534 -65.465912 -32.949216 -74.687941 9.877473 -2.334051 -2.574348 12.214386 -14.488829 
56.339517 0.000000 -159.048434 180.000000 -38.319730 180.000000 -10.894365 79.854927 -1.993688 79.002831 -7.431037 -179.409286 153.395925 6.888306 -173.216821 -56.446793 -4.314217 -5.479034 107.796005 3.696165 -5.177153 21.454557 0.003105 0.000017 151.105927 1.671099 -171.952089 -118.841616 -4.680034 8.769060 71.848542 -4.350939 5.392842 21.454553 -0.003091 0.000003 11.328557 -1.994581 -2.217948 12.726972 -3.732704 -4.644605 12.409268 -3.760802 -4.622023 -19.603811 6.558855 1.917663 -22.269552 -3.286435 5.630236 -175.858561 -72.129833 -5.642720 -24.316384 45.706597 -1.624856 -100.861799 -0.555808 2.871996 -15.725110 -10.454883 25.843025 -165.502927 73.567684 16.322512 22.821030 -64.079815 -38.991243 -74.131635 9.715264 -2.296263 -3.099981 13.217805 -14.867321 
